# This file uses centimeters as units for non-parametric coordinates.

mtllib OBJ.mtl
g default
v -11.448993 0.773458 11.448993
v 11.448993 0.773458 11.448993
v -11.448993 1.566637 11.448993
v 11.448993 1.566637 11.448993
v -11.448993 1.566637 -11.448993
v 11.448993 1.566637 -11.448993
v -11.448993 0.773458 -11.448993
v 11.448993 0.773458 -11.448993
v -3.996501 9.520769 3.996501
v 3.996501 9.520769 3.996501
v 3.996501 9.520769 -3.996501
v -3.996501 9.520769 -3.996501
v -3.305069 8.444729 -3.305069
v 3.305069 8.444729 -3.305069
v 3.305069 8.444729 3.305069
v -3.305069 8.444729 3.305069
v 0.000000 0.773458 16.151020
v 0.000000 8.444729 4.662439
v 0.000000 8.444729 -4.662439
v 0.000000 0.773458 -16.151020
v 0.000000 1.566637 -16.151020
v 0.000000 9.520769 -5.637837
v 0.000000 9.520769 5.637837
v 0.000000 1.566637 16.151020
v -16.151020 1.566637 0.000000
v -5.637837 9.520769 0.000000
v 0.000000 9.520769 0.000000
v 5.637837 9.520769 0.000000
v 16.151020 1.566637 0.000000
v 16.151020 0.773458 0.000000
v 4.662439 8.444729 0.000000
v 0.000000 8.444729 0.000000
v -4.662439 8.444729 0.000000
v -16.151020 0.773458 0.000000
v -5.070069 2.733404 5.070069
v -5.028477 2.962786 5.028477
v -4.973361 3.402000 4.973361
v 0.000000 3.402000 7.015887
v 0.000000 2.962786 7.093640
v 0.000000 2.733404 7.152311
v 5.070069 2.733404 5.070069
v 5.028477 2.962786 5.028477
v 4.973361 3.402000 4.973361
v 7.015887 3.402000 0.000000
v 7.093640 2.962786 0.000000
v 7.152311 2.733404 0.000000
v -4.973361 3.402000 -4.973361
v -5.028477 2.962786 -5.028477
v -5.070069 2.733404 -5.070069
v 0.000000 2.733404 -7.152311
v 0.000000 2.962786 -7.093640
v 0.000000 3.402000 -7.015887
v -7.152311 2.733404 0.000000
v -7.093640 2.962786 0.000000
v -7.015887 3.402000 0.000000
v -4.449505 2.169607 -4.449505
v -4.112924 2.169607 -4.112924
v -4.112924 2.608822 -4.112924
v 0.000000 2.608822 -5.802074
v 0.000000 2.169607 -5.802074
v -0.000000 2.169607 -6.276887
v 4.449505 2.169607 -4.449505
v 4.112924 2.169607 -4.112924
v 4.112924 2.608822 -4.112924
v 6.276887 2.169607 -0.000000
v 5.802074 2.169607 0.000000
v 5.802074 2.608822 0.000000
v -4.112924 2.608822 4.112924
v -4.112924 2.169607 4.112924
v -4.449505 2.169607 4.449505
v 0.000000 2.169607 6.276887
v 0.000000 2.169607 5.802074
v 0.000000 2.608822 5.802074
v -5.802074 2.608822 0.000000
v -5.802074 2.169607 0.000000
v -6.276887 2.169607 0.000000
v 4.449505 2.169607 4.449505
v 4.112924 2.169607 4.112924
v 4.112924 2.608822 4.112924
v 5.070069 2.733404 -5.070069
v 5.028477 2.962786 -5.028477
v 4.973361 3.402000 -4.973361
v 0.000000 4.013877 6.878082
v 4.875675 4.013877 4.875675
v 6.878082 4.013877 0.000000
v 4.875675 4.013877 -4.875675
v 0.000000 4.013877 -6.878082
v -4.875675 4.013877 -4.875675
v -6.878082 4.013877 0.000000
v -4.875675 4.013877 4.875675
vt 0.214835 0.532858
vt 0.336055 0.532858
vt 0.336055 0.593468
vt 0.214835 0.593468
vt 0.336055 0.472248
vt 0.214835 0.472248
vt 0.001465 0.532858
vt 0.001465 0.561900
vt 0.001465 0.503816
vt 0.997022 0.425691
vt 0.997022 0.486301
vt 0.875802 0.486301
vt 0.875802 0.425691
vt 0.997022 0.546911
vt 0.875802 0.546911
vt 0.662432 0.486301
vt 0.662432 0.457259
vt 0.662432 0.515343
vt 0.931758 0.051696
vt 0.998535 0.050828
vt 0.998535 0.077888
vt 0.931758 0.077888
vt 0.998535 0.104948
vt 0.931758 0.104081
vt 0.838728 0.077888
vt 0.838728 0.052210
vt 0.838728 0.103566
vt 0.001465 0.077888
vt 0.001465 0.056840
vt 0.001465 0.098936
vt 0.838724 0.150936
vt 0.838724 0.176614
vt 0.001465 0.176614
vt 0.001465 0.155566
vt 0.931753 0.150421
vt 0.931752 0.176614
vt 0.838724 0.202292
vt 0.001465 0.197662
vt 0.998530 0.149553
vt 0.998530 0.176614
vt 0.931753 0.202806
vt 0.998530 0.203674
vt 0.662432 0.639173
vt 0.662432 0.578118
vt 0.877371 0.578118
vt 0.877371 0.601846
vt 0.662432 0.517062
vt 0.877371 0.554389
vt 0.216404 0.624674
vt 0.001465 0.624674
vt 0.001465 0.563619
vt 0.216404 0.600946
vt 0.001465 0.685730
vt 0.216404 0.648403
vt 0.888738 0.240776
vt 0.888738 0.262437
vt 0.001465 0.262437
vt 0.001465 0.245031
vt 0.955515 0.240776
vt 0.955515 0.262437
vt 0.888738 0.284098
vt 0.001465 0.279843
vt 0.955515 0.284098
vt 0.001465 0.343716
vt 0.888737 0.343716
vt 0.888737 0.365377
vt 0.001465 0.361123
vt 0.888737 0.322056
vt 0.001465 0.326310
vt 0.955514 0.365377
vt 0.955514 0.343716
vt 0.955514 0.322056
vt 0.845544 0.423524
vt 0.845544 0.394968
vt 0.874100 0.394968
vt 0.865787 0.415211
vt 0.816987 0.394968
vt 0.825300 0.415211
vt 0.845544 0.366411
vt 0.865787 0.374725
vt 0.825300 0.374725
vt 0.972139 0.408193
vt 0.972139 0.384577
vt 0.995755 0.384577
vt 0.988880 0.401318
vt 0.948523 0.384577
vt 0.955398 0.401318
vt 0.988880 0.367836
vt 0.972139 0.360961
vt 0.955398 0.367837
vt 0.685471 0.430987
vt 0.683709 0.432748
vt 0.672297 0.404961
vt 0.674783 0.404960
vt 0.711496 0.441675
vt 0.711496 0.444160
vt 0.683710 0.377174
vt 0.685472 0.378935
vt 0.737522 0.430987
vt 0.739284 0.432748
vt 0.711496 0.365763
vt 0.711496 0.368247
vt 0.748211 0.404961
vt 0.750694 0.404960
vt 0.739283 0.377174
vt 0.737521 0.378935
vt 0.762180 0.418738
vt 0.760475 0.420443
vt 0.751219 0.397905
vt 0.753624 0.397905
vt 0.783013 0.427294
vt 0.783013 0.429699
vt 0.760475 0.375368
vt 0.762180 0.377073
vt 0.803845 0.418738
vt 0.805550 0.420443
vt 0.783013 0.366112
vt 0.783013 0.368517
vt 0.812401 0.397905
vt 0.814806 0.397905
vt 0.805550 0.375368
vt 0.803845 0.377073
vt 0.458101 0.425161
vt 0.336881 0.425161
vt 0.336881 0.364551
vt 0.458101 0.364551
vt 0.336881 0.485771
vt 0.458101 0.485771
vt 0.671471 0.425161
vt 0.671471 0.396119
vt 0.671471 0.454203
vt 0.001465 0.423553
vt 0.122684 0.423553
vt 0.122684 0.484163
vt 0.001465 0.484163
vt 0.122684 0.362943
vt 0.001465 0.362943
vt 0.336054 0.423553
vt 0.336054 0.452594
vt 0.336054 0.394511
vt 0.068242 0.054718
vt 0.001465 0.055586
vt 0.001465 0.028525
vt 0.068242 0.028525
vt 0.001465 0.001465
vt 0.068242 0.002333
vt 0.161271 0.028525
vt 0.161271 0.054203
vt 0.161271 0.002847
vt 0.998530 0.028525
vt 0.998530 0.049573
vt 0.998530 0.007477
vt 0.001465 0.100190
vt 0.068242 0.101058
vt 0.068242 0.127251
vt 0.001465 0.127251
vt 0.161271 0.101573
vt 0.161271 0.127251
vt 0.068242 0.153443
vt 0.001465 0.154311
vt 0.998529 0.127251
vt 0.998529 0.106203
vt 0.161271 0.152929
vt 0.998529 0.148299
vt 0.068242 0.243458
vt 0.001465 0.243458
vt 0.001465 0.221797
vt 0.068242 0.221797
vt 0.001465 0.200136
vt 0.068242 0.200136
vt 0.955515 0.221797
vt 0.955515 0.239204
vt 0.955515 0.204391
vt 0.001465 0.281416
vt 0.068242 0.281416
vt 0.068242 0.303077
vt 0.001465 0.303077
vt 0.955515 0.303077
vt 0.955515 0.285671
vt 0.068242 0.324737
vt 0.001465 0.324737
vt 0.955515 0.320483
vt 0.445398 0.518594
vt 0.660337 0.518594
vt 0.660337 0.579649
vt 0.445398 0.542322
vt 0.660337 0.457538
vt 0.445398 0.494865
vt 0.336881 0.647391
vt 0.336881 0.586336
vt 0.551820 0.586336
vt 0.551820 0.610064
vt 0.336881 0.525280
vt 0.551820 0.562607
vt 0.812401 0.397905
vt 0.814806 0.397905
vt 0.751219 0.397905
vt 0.753624 0.397905
vt 0.748210 0.404960
vt 0.750696 0.404961
vt 0.672299 0.404960
vt 0.674782 0.404961
vn 0.000000 0.000000 1.000000
vn 0.000000 0.000000 1.000000
vn 0.379903 0.000000 0.925027
vn 0.379903 0.000000 0.925027
vn 0.000000 1.000000 -0.000000
vn 0.000000 1.000000 -0.000000
vn 0.000000 1.000000 -0.000000
vn 0.000000 1.000000 -0.000000
vn 0.000000 0.000000 -1.000000
vn 0.000000 0.000000 -1.000000
vn 0.379903 0.000000 -0.925027
vn 0.379903 0.000000 -0.925027
vn 0.000000 -1.000000 -0.000000
vn 0.000000 -1.000000 -0.000000
vn 0.000000 -1.000000 -0.000000
vn 0.000000 -1.000000 -0.000000
vn 1.000000 0.000000 0.000000
vn 1.000000 0.000000 0.000000
vn 0.925027 0.000000 -0.379902
vn 0.925027 0.000000 -0.379902
vn -0.925027 0.000000 -0.379902
vn -1.000000 0.000000 0.000000
vn -1.000000 0.000000 0.000000
vn -0.925027 0.000000 -0.379902
vn 0.000000 -1.000000 -0.000000
vn 0.000000 -1.000000 0.000000
vn -0.379903 0.000000 -0.925027
vn -0.379903 0.000000 -0.925027
vn 0.000000 1.000000 0.000000
vn 0.000000 1.000000 -0.000000
vn -0.379903 0.000000 0.925027
vn -0.379903 0.000000 0.925027
vn 0.000000 1.000000 0.000000
vn 0.000000 1.000000 0.000000
vn 0.000000 1.000000 0.000000
vn 0.925027 0.000000 0.379902
vn 0.925027 0.000000 0.379902
vn 0.000000 -1.000000 0.000000
vn 0.000000 -1.000000 0.000000
vn 0.000000 -1.000000 0.000000
vn -0.925027 0.000000 0.379902
vn -0.925027 0.000000 0.379902
vn -0.373260 0.186186 0.908852
vn -0.374909 0.161601 0.912868
vn -0.374909 0.161601 0.912868
vn -0.373259 0.186187 0.908852
vn -0.684947 0.248386 0.684947
vn -0.100361 0.989876 0.100361
vn 0.000000 0.989825 0.142293
vn 0.000000 0.247806 0.968810
vn 0.908852 0.186186 0.373259
vn 0.912868 0.161601 0.374909
vn 0.912868 0.161601 0.374909
vn 0.908852 0.186187 0.373259
vn 0.684947 0.248386 0.684947
vn 0.100361 0.989876 0.100361
vn 0.142293 0.989825 -0.000000
vn 0.968810 0.247806 0.000000
vn -0.100361 0.989876 -0.100361
vn -0.684947 0.248386 -0.684947
vn 0.000000 0.247806 -0.968810
vn 0.000000 0.989825 -0.142293
vn -0.374909 0.161601 -0.912868
vn -0.373259 0.186186 -0.908852
vn -0.373259 0.186187 -0.908852
vn -0.374909 0.161601 -0.912868
vn 0.374731 -0.164434 0.912435
vn 0.379902 0.000000 0.925027
vn 0.379902 0.000000 0.925027
vn 0.374731 -0.164434 0.912435
vn 0.000000 -1.000000 0.000000
vn 0.097014 -0.990544 0.097014
vn 0.000000 -0.990499 0.137519
vn 0.000000 -1.000000 0.000000
vn 0.097014 -0.990544 -0.097014
vn 0.000000 -1.000000 0.000000
vn 0.000000 -1.000000 0.000000
vn 0.000000 -0.990499 -0.137519
vn 0.379902 0.000000 -0.925027
vn 0.374731 -0.164434 -0.912435
vn 0.374731 -0.164434 -0.912435
vn 0.379902 0.000000 -0.925027
vn 0.000000 0.991699 0.128583
vn 0.090699 0.991740 0.090699
vn 0.128583 0.991699 0.000000
vn 0.090699 0.991740 -0.090699
vn 0.100361 0.989876 -0.100361
vn 0.000000 0.991699 -0.128583
vn -0.090699 0.991740 -0.090699
vn -0.128583 0.991699 0.000000
vn -0.142293 0.989825 -0.000000
vn 0.371917 0.203953 0.905583
vn 0.371917 0.203953 0.905583
vn 0.371917 0.203953 0.905583
vn 0.371917 0.203953 0.905583
vn 0.905583 0.203953 -0.371917
vn 0.905583 0.203953 -0.371917
vn 0.905583 0.203953 -0.371917
vn 0.905583 0.203953 -0.371917
vn 0.371917 0.203953 -0.905583
vn 0.371917 0.203953 -0.905583
vn 0.371917 0.203953 -0.905583
vn 0.371917 0.203953 -0.905583
vn -0.905583 0.203953 -0.371917
vn -0.905583 0.203953 -0.371917
vn -0.905583 0.203953 -0.371917
vn -0.905583 0.203953 -0.371917
vn 0.000000 -0.990151 0.140002
vn -0.098755 -0.990199 0.098755
vn -0.097014 -0.990544 0.097014
vn -0.140002 -0.990151 0.000000
vn -0.137519 -0.990499 0.000000
vn -0.098755 -0.990199 -0.098755
vn 0.000000 -0.990151 -0.140002
vn -0.097014 -0.990544 -0.097014
vn 0.137519 -0.990499 0.000000
vn 0.140002 -0.990151 0.000000
vn 0.098755 -0.990199 0.098755
vn -0.373852 -0.177762 0.910294
vn -0.374731 -0.164434 0.912435
vn -0.374731 -0.164434 0.912435
vn -0.373852 -0.177762 0.910294
vn -0.912435 -0.164434 0.374731
vn -0.912435 -0.164434 0.374731
vn -0.910294 -0.177762 0.373852
vn -0.910294 -0.177762 0.373852
vn -0.374731 -0.164434 -0.912435
vn -0.374731 -0.164434 -0.912435
vn -0.373852 -0.177762 -0.910294
vn -0.373852 -0.177762 -0.910294
vn 0.910294 -0.177762 0.373852
vn 0.912435 -0.164435 0.374731
vn 0.912435 -0.164434 0.374731
vn 0.910294 -0.177762 0.373852
vn 0.098755 -0.990199 -0.098755
vn 0.373852 -0.177762 -0.910294
vn 0.373852 -0.177762 -0.910294
vn 0.373852 -0.177762 0.910294
vn 0.373852 -0.177762 0.910294
vn -0.371917 0.203953 -0.905583
vn -0.371917 0.203953 -0.905583
vn -0.371917 0.203953 -0.905583
vn -0.371917 0.203953 -0.905583
vn -0.371917 0.203953 0.905583
vn -0.371917 0.203953 0.905583
vn -0.371917 0.203953 0.905583
vn -0.371917 0.203953 0.905583
vn -0.090699 0.991740 0.090699
vn -0.905583 0.203953 0.371917
vn -0.905583 0.203953 0.371917
vn -0.905583 0.203953 0.371917
vn -0.905583 0.203953 0.371917
vn 0.905583 0.203953 0.371917
vn 0.905583 0.203953 0.371917
vn 0.905583 0.203953 0.371917
vn 0.905583 0.203953 0.371917
vn -0.910294 -0.177762 -0.373852
vn -0.912435 -0.164435 -0.374731
vn -0.912435 -0.164434 -0.374731
vn -0.910294 -0.177762 -0.373852
vn 0.912435 -0.164434 -0.374731
vn 0.912435 -0.164434 -0.374731
vn 0.910294 -0.177762 -0.373852
vn 0.910294 -0.177762 -0.373852
vn -0.968810 0.247806 0.000000
vn -0.912868 0.161601 0.374909
vn -0.908852 0.186186 0.373259
vn -0.908852 0.186187 0.373259
vn -0.912868 0.161601 0.374909
vn 0.373260 0.186187 0.908852
vn 0.374909 0.161601 0.912868
vn 0.374909 0.161601 0.912868
vn 0.373260 0.186186 0.908852
vn 0.684947 0.248386 -0.684947
vn 0.374909 0.161601 -0.912868
vn 0.373260 0.186187 -0.908852
vn 0.373260 0.186186 -0.908852
vn 0.374909 0.161601 -0.912868
vn -0.908852 0.186186 -0.373259
vn -0.912868 0.161601 -0.374909
vn -0.912868 0.161601 -0.374909
vn -0.908852 0.186187 -0.373259
vn -0.379902 0.000000 0.925027
vn -0.379902 0.000000 0.925027
vn 0.000000 -1.000000 0.000000
vn -0.925027 0.000000 0.379902
vn -0.925027 0.000000 0.379902
vn 0.000000 -1.000000 0.000000
vn 0.925027 0.000000 -0.379902
vn 0.925027 0.000000 -0.379902
vn 0.000000 -1.000000 0.000000
vn 0.000000 -1.000000 0.000000
vn -0.379902 0.000000 -0.925027
vn -0.379902 0.000000 -0.925027
vn 0.925027 0.000000 0.379902
vn 0.925027 0.000000 0.379902
vn -0.925027 0.000000 -0.379902
vn -0.925027 0.000000 -0.379902
vn 0.908852 0.186187 -0.373259
vn 0.912868 0.161601 -0.374909
vn 0.912868 0.161601 -0.374909
vn 0.908852 0.186186 -0.373259
s 1
g pCube1
usemtl aiStandardSurface2SG
f 24/123/1 17/124/2 2/125/3 4/126/4
s 2
f 22/73/5 27/74/6 28/75/7 11/76/8
s 3
f 20/132/9 21/133/10 6/134/11 8/135/12
s 4
f 31/82/13 32/83/14 19/84/15 14/85/16
s 5
f 29/1/17 30/2/18 8/3/19 6/4/20
s 6
f 7/10/21 34/11/22 25/12/23 5/13/24
s 4
f 13/88/25 19/84/15 32/83/14 33/89/26
s 3
f 5/136/27 21/133/10 20/132/9 7/137/28
s 2
f 26/77/29 27/74/6 22/73/5 12/78/30
s 1
f 1/127/31 17/124/2 24/123/1 3/128/32
s 2
f 9/81/33 23/79/34 27/74/6 26/77/29
f 28/75/7 27/74/6 23/79/34 10/80/35
s 5
f 2/5/36 30/2/18 29/1/17 4/6/37
s 4
f 18/86/38 32/83/14 31/82/13 15/87/39
f 33/89/26 32/83/14 18/86/38 16/90/40
s 6
f 25/12/23 34/11/22 1/14/41 3/15/42
s 7
f 37/141/43 36/142/44 39/143/45 38/144/46
s 8
f 36/91/47 35/92/48 40/93/49 39/202/50
s 9
f 43/19/51 42/20/52 45/21/53 44/22/54
s 8
f 42/98/55 41/97/56 46/101/57 45/102/58
f 49/100/59 48/99/60 51/103/61 50/200/62
s 11
f 48/153/63 47/154/64 52/155/65 51/156/66
s 12
f 58/165/67 57/166/68 60/167/69 59/168/70
s 13
f 57/107/71 56/108/72 61/109/73 60/198/74
f 70/116/75 69/115/76 72/119/77 71/196/78
s 15
f 69/174/79 68/175/80 73/176/81 72/177/82
s 8
f 40/129/49 24/123/83 4/126/84 41/130/56
f 46/7/57 29/1/85 6/4/86 80/8/87
f 6/134/86 21/133/88 50/138/62 80/139/87
f 5/13/89 25/12/90 53/16/91 49/17/59
s 17
f 23/150/92 83/147/93 84/149/94 10/152/95
s 18
f 28/28/96 85/25/97 86/27/98 11/30/99
s 19
f 86/163/100 87/158/101 22/161/102 11/164/103
s 20
f 88/31/104 89/32/105 26/33/106 12/34/107
s 13
f 61/183/73 20/184/108 8/185/109 62/186/110
f 8/43/109 30/44/111 65/45/112 62/46/110
f 2/189/113 17/190/114 71/191/78 77/192/115
f 76/49/116 34/50/117 7/51/118 56/52/72
s 22
f 19/171/119 59/168/120 64/170/121 14/173/122
s 23
f 64/55/123 67/56/124 31/57/125 14/58/126
s 24
f 79/180/127 73/176/128 18/178/129 15/182/130
s 25
f 33/64/131 74/65/132 58/66/133 13/67/134
s 13
f 71/191/78 17/190/114 1/193/135 70/194/75
s 15
f 18/178/136 73/176/81 68/175/80 16/179/137
s 12
f 58/165/67 59/168/70 19/171/138 13/172/139
s 13
f 7/187/118 20/184/108 61/183/73 56/188/72
s 8
f 50/138/62 21/133/88 5/136/89 49/140/59
s 11
f 22/161/140 87/158/141 88/157/142 12/162/143
s 7
f 90/148/144 83/147/145 23/150/146 9/151/147
s 8
f 3/128/148 24/123/83 40/129/49 35/131/48
f 53/16/91 25/12/90 3/15/148 35/18/48
s 26
f 26/33/149 89/32/150 90/37/151 9/38/152
s 9
f 84/26/153 85/25/154 28/28/155 10/29/156
s 8
f 4/6/84 29/1/85 46/7/57 41/9/56
s 13
f 65/45/112 30/44/111 2/47/113 77/48/115
s 27
f 31/57/157 67/56/158 79/61/159 15/62/160
s 28
f 68/68/161 74/65/162 33/64/163 16/69/164
s 13
f 1/53/135 34/50/117 76/49/116 70/54/75
s 8
f 35/92/48 36/91/47 54/95/165 53/96/91
s 26
f 36/42/166 37/41/167 55/36/168 54/40/169
s 17
f 38/144/170 39/143/171 42/145/172 43/146/173
s 8
f 39/94/50 40/201/49 41/97/56 42/98/55
f 50/104/62 51/199/61 81/106/174 80/105/87
s 19
f 51/156/175 52/155/176 82/159/177 81/160/178
s 20
f 47/35/179 48/39/180 54/40/181 55/36/182
s 8
f 48/99/60 49/100/59 53/96/91 54/95/165
s 22
f 59/168/120 60/167/183 63/169/184 64/170/121
s 13
f 60/110/74 61/197/73 62/113/110 63/114/185
s 23
f 64/55/123 63/59/186 66/60/187 67/56/124
s 13
f 63/114/185 62/113/110 65/117/112 66/118/188
s 28
f 68/68/161 69/72/189 75/71/190 74/65/162
s 13
f 69/115/76 70/116/75 76/112/116 75/111/191
f 71/120/78 72/195/77 78/122/192 77/121/115
s 24
f 72/177/193 73/176/128 79/180/127 78/181/194
s 13
f 56/108/72 57/107/71 75/111/191 76/112/116
s 25
f 57/70/195 58/66/133 74/65/132 75/71/196
s 27
f 67/56/158 66/60/197 78/63/198 79/61/159
s 13
f 66/118/188 65/117/112 77/121/115 78/122/192
s 18
f 44/22/199 45/21/200 81/23/201 82/24/202
s 8
f 45/102/58 46/101/57 80/105/87 81/106/174
s 17
usemtl aiStandardSurface1SG
f 84/149/94 83/147/93 38/144/170 43/146/173
s 9
f 43/19/51 44/22/54 85/25/154 84/26/153
s 18
f 86/27/98 85/25/97 44/22/199 82/24/202
s 19
f 82/159/177 52/155/176 87/158/101 86/163/100
s 11
f 88/157/142 87/158/141 52/155/65 47/154/64
s 20
f 47/35/179 55/36/182 89/32/105 88/31/104
s 26
f 90/37/151 89/32/150 55/36/168 37/41/167
s 7
f 37/141/43 38/144/46 83/147/145 90/148/144
